<svg width="36" height="35" viewBox="0 0 36 35"   xmlns="http://www.w3.org/2000/svg">
<path d="M28.9375 17.5C30.2938 17.5 31.5334 17.9083 32.5834 18.6083V11.6667C32.5834 10.0625 31.2709 8.75 29.6667 8.75H20.4938L18.9479 7.20417L21.0042 5.14792L19.9688 4.1125L14.8209 9.26042L15.8563 10.2958L17.9125 8.23958L19.4584 9.78542V13.125C19.4584 14.7292 18.1459 16.0417 16.5417 16.0417H15.7542C17.1979 17.6418 17.9979 19.7198 18 21.875C18 22.3708 17.9417 22.8521 17.8688 23.3333H22.4479C22.8125 20.0521 25.5688 17.5 28.9375 17.5Z" />
<path d="M28.9375 18.9583C26.1229 18.9583 23.8333 21.2479 23.8333 24.0625C23.8333 26.8771 26.1229 29.1667 28.9375 29.1667C31.7521 29.1667 34.0416 26.8771 34.0416 24.0625C34.0416 21.2479 31.7521 18.9583 28.9375 18.9583ZM28.9375 26.25C27.7271 26.25 26.75 25.2729 26.75 24.0625C26.75 22.8521 27.7271 21.875 28.9375 21.875C30.1479 21.875 31.125 22.8521 31.125 24.0625C31.125 25.2729 30.1479 26.25 28.9375 26.25ZM6.33331 13.125H13.625C13.625 11.5208 12.3125 10.2083 10.7083 10.2083H6.33331C5.53123 10.2083 4.87498 10.8646 4.87498 11.6667C4.87498 12.4687 5.53123 13.125 6.33331 13.125ZM14.8354 20.1542L14.5729 19.4688L15.9291 18.9583C15.2558 17.4191 14.0636 16.165 12.5604 15.4146L11.9771 16.7125L11.3062 16.4062L11.8896 15.0937C11.0875 14.7729 10.1833 14.5833 9.24998 14.5833C8.47706 14.5833 7.73331 14.7437 7.03331 14.9625L7.52915 16.2896L6.84373 16.5521L6.33331 15.1958C4.79409 15.8692 3.53997 17.0614 2.78956 18.5646L4.08748 19.1479L3.78123 19.8187L2.46873 19.2354C2.1479 20.0375 1.95831 20.9417 1.95831 21.875C1.95831 22.6479 2.11873 23.3917 2.33748 24.0917L3.66456 23.5958L3.92706 24.2812L2.57081 24.7917C3.2442 26.3309 4.43638 27.585 5.93956 28.3354L6.5229 27.0375L7.19373 27.3438L6.6104 28.6562C7.41248 28.9771 8.31665 29.1667 9.24998 29.1667C10.0229 29.1667 10.7666 29.0062 11.4666 28.7875L10.9708 27.4604L11.6562 27.1979L12.1666 28.5542C13.7059 27.8808 14.96 26.6886 15.7104 25.1854L14.4125 24.6021L14.7187 23.9312L16.0312 24.5146C16.3521 23.7125 16.5416 22.8083 16.5416 21.875C16.5416 21.1021 16.3812 20.3583 16.1625 19.6583L14.8354 20.1542ZM10.9271 25.9146C8.69581 26.8333 6.12915 25.7833 5.2104 23.5521C4.29165 21.3208 5.34165 18.7542 7.5729 17.8354C9.80415 16.9167 12.3708 17.9667 13.2896 20.1979C14.2229 22.4292 13.1583 24.9958 10.9271 25.9146Z" />
</svg>
