<svg width="35" height="35" viewBox="0 0 35 35" fill="none" xmlns="http://www.w3.org/2000/svg">
<path d="M2 14.9117L5.97058 18.8823M2 14.9117L5.97058 10.9412M2 14.9117H9.23528C13.1882 14.9117 15.1647 14.9117 16.6753 15.6812C18.0034 16.3579 19.0832 17.4377 19.76 18.7659C20.5294 20.2764 20.5294 22.2529 20.5294 26.2058V26.8235" stroke="black" stroke-width="1.5" stroke-linecap="round" stroke-linejoin="round"/>
<path d="M31.6821 11.8236H25.8233C25.3553 11.8236 24.9064 11.6376 24.5755 11.3067C24.2445 10.9757 24.0586 10.5269 24.0586 10.0589V4.20004C24.7168 4.50004 25.2092 5.03298 25.7121 5.53592L30.3462 10.17C30.8492 10.673 31.3839 11.1653 31.6821 11.8236Z" fill="black"/>
<path d="M9.94141 14.4706C9.94141 14.7046 10.0344 14.9291 10.1998 15.0945C10.3653 15.26 10.5897 15.353 10.8238 15.353C11.0578 15.353 11.2822 15.26 11.4477 15.0945C11.6131 14.9291 11.7061 14.7046 11.7061 14.4706H9.94141ZM11.7061 21.5294C11.7061 21.2954 11.6131 21.071 11.4477 20.9055C11.2822 20.74 11.0578 20.6471 10.8238 20.6471C10.5897 20.6471 10.3653 20.74 10.1998 20.9055C10.0344 21.071 9.94141 21.2954 9.94141 21.5294H11.7061ZM31.6826 11.8236V12.7059C31.8303 12.7062 31.9758 12.6693 32.1056 12.5987C32.2355 12.5281 32.3455 12.426 32.4256 12.3018C32.5057 12.1776 32.5533 12.0353 32.5641 11.8879C32.5749 11.7405 32.5484 11.5928 32.4873 11.4583L31.6826 11.8236ZM24.059 4.20004L24.4243 3.3971C24.2899 3.33598 24.1424 3.30956 23.9951 3.32025C23.8479 3.33095 23.7057 3.37842 23.5815 3.45831C23.4574 3.53821 23.3553 3.64797 23.2845 3.77756C23.2138 3.90715 23.1767 4.05241 23.1767 4.20004H24.059ZM26.3531 31.2353H16.4708V33H26.3531V31.2353ZM16.4708 4.76475H21.7208V3.00004H16.4708V4.76475ZM31.1178 14.1618V26.4706H32.8826V14.1618H31.1178ZM25.0896 6.16063L29.722 10.793L30.9696 9.54533L26.3373 4.91298L25.0896 6.16063ZM11.7061 14.4706V9.52945H9.94141V14.4706H11.7061ZM11.7061 26.4706V21.5294H9.94141V26.4706H11.7061ZM29.722 10.793C30.3608 11.4336 30.5761 11.6559 30.7278 11.903L32.2331 10.9818C31.9473 10.5159 31.5502 10.1259 30.9696 9.54533L29.722 10.793ZM26.3373 4.91298C25.7584 4.33063 25.3667 3.93534 24.9008 3.64946L23.9796 5.15475C24.2267 5.30651 24.449 5.52004 25.0896 6.16063L26.3373 4.91298ZM21.7208 4.76475C22.7214 4.76475 23.3796 4.78592 23.9814 5.15475L24.9043 3.64946C23.812 2.9824 22.6473 3.00004 21.7208 3.00004V4.76475ZM32.8826 14.1618C32.8826 13.2336 32.9002 12.0724 32.2331 10.9818L30.7278 11.903C31.0984 12.5047 31.1178 13.1612 31.1178 14.1618H32.8826ZM31.6826 10.9412H25.8237V12.7059H31.6826V10.9412ZM24.9414 10.0589V4.20004H23.1767V10.0589H24.9414ZM25.8237 10.9412C25.5897 10.9412 25.3653 10.8482 25.1998 10.6828C25.0343 10.5173 24.9414 10.2929 24.9414 10.0589H23.1767C23.1767 10.7609 23.4556 11.4342 23.952 11.9306C24.4484 12.427 25.1217 12.7059 25.8237 12.7059V10.9412ZM23.6937 5.00298C24.172 5.22004 24.539 5.60828 25.0896 6.16063L26.3373 4.91298C25.8784 4.45416 25.2608 3.78004 24.4243 3.3971L23.6937 5.00298ZM29.722 10.793C30.2743 11.3453 30.6626 11.7106 30.8796 12.1889L32.4873 11.4583C32.1061 10.62 31.4267 10.0024 30.9696 9.54533L29.722 10.793ZM16.4708 31.2353C14.459 31.2353 13.3561 30.9071 12.7191 30.2947C12.0908 29.6876 11.7061 28.5935 11.7061 26.4706H9.94141C9.94141 28.7082 10.3261 30.4377 11.4943 31.5653C12.6555 32.6841 14.3761 33 16.4708 33V31.2353ZM31.1178 26.4706C31.1178 28.4824 30.7896 29.5853 30.1773 30.2224C29.5702 30.8506 28.4761 31.2353 26.3531 31.2353V33C28.5908 33 30.3202 32.6153 31.4478 31.4471C32.5667 30.2859 32.8826 28.5653 32.8826 26.4706H31.1178ZM11.7061 9.52945C11.7061 7.51768 12.0343 6.41475 12.6467 5.77769C13.2538 5.14945 14.3479 4.76475 16.4708 4.76475V3.00004C14.2332 3.00004 12.5038 3.38475 11.3761 4.55298C10.2591 5.71416 9.94141 7.43474 9.94141 9.52945H11.7061Z" fill="black"/>
</svg>
