<svg width="35" height="35" stroke="black" viewBox="0 0 35 35" fill="none" xmlns="http://www.w3.org/2000/svg">
<path d="M20.4706 30.5331C20.2042 30.533 19.943 30.4598 19.7152 30.3217L14.8531 27.405C14.3061 27.0751 13.8533 26.6097 13.5383 26.0539C13.2234 25.4981 13.0569 24.8705 13.055 24.2317V17.6327C13.0559 17.167 12.9111 16.7126 12.6408 16.3333L5.8523 6.79291C5.69379 6.57267 5.59919 6.31291 5.57896 6.04231C5.55873 5.77171 5.61364 5.50078 5.73764 5.25941C5.86165 5.01804 6.04992 4.81562 6.28168 4.67448C6.51345 4.53334 6.7797 4.45897 7.05105 4.45958H27.949C28.2205 4.45845 28.4871 4.53249 28.7192 4.67352C28.9513 4.81454 29.1398 5.01705 29.2639 5.25861C29.388 5.50017 29.4429 5.77136 29.4224 6.04216C29.4018 6.31296 29.3068 6.5728 29.1477 6.79291L22.3592 16.3333C22.0884 16.7124 21.943 17.1668 21.9436 17.6327V29.0573C21.9432 29.4481 21.788 29.8228 21.5119 30.0994C21.2358 30.376 20.8614 30.532 20.4706 30.5331ZM7.05105 5.9252L13.8279 15.4875C14.2771 16.1123 14.517 16.8632 14.5133 17.6327V24.2302C14.5139 24.6173 14.6145 24.9977 14.8053 25.3345C14.9962 25.6712 15.2709 25.953 15.6027 26.1523L20.4648 29.069L20.4852 17.6312C20.482 16.8616 20.7224 16.1107 21.1721 15.486L27.9592 5.94562L7.05105 5.9252Z" fill="black"   stroke-width="0.5"/>
</svg>
