<svg width="35" height="35" viewBox="0 0 35 35" fill="none" xmlns="http://www.w3.org/2000/svg">
<path d="M19.8823 28.706L15.4706 24.2942M19.8823 28.706L24.2941 24.2942M19.8823 28.706V26.7648C19.8823 22.8119 19.8823 20.8354 19.1129 19.3248C18.4362 17.9967 17.3564 16.9169 16.0282 16.2401C14.5176 15.4707 12.5412 15.4707 8.58823 15.4707H4" stroke="black" stroke-width="1.5" stroke-linecap="round" stroke-linejoin="round"/>
<path d="M30.1528 11.8236H24.294C23.826 11.8236 23.3771 11.6376 23.0462 11.3067C22.7152 10.9757 22.5293 10.5269 22.5293 10.0589V4.20004C23.1875 4.50004 23.6799 5.03298 24.1828 5.53592L28.8169 10.17C29.3199 10.673 29.8546 11.1653 30.1528 11.8236Z" fill="black"/>
<path d="M8.41211 14.4706C8.41211 14.7046 8.50507 14.9291 8.67054 15.0945C8.83602 15.26 9.06045 15.353 9.29446 15.353C9.52848 15.353 9.7529 15.26 9.91838 15.0945C10.0839 14.9291 10.1768 14.7046 10.1768 14.4706H8.41211ZM10.1768 21.5294C10.1768 21.2954 10.0839 21.071 9.91838 20.9055C9.7529 20.74 9.52848 20.6471 9.29446 20.6471C9.06045 20.6471 8.83602 20.74 8.67054 20.9055C8.50507 21.071 8.41211 21.2954 8.41211 21.5294H10.1768ZM30.1533 11.8236V12.7059C30.301 12.7062 30.4465 12.6693 30.5763 12.5987C30.7062 12.5281 30.8162 12.426 30.8963 12.3018C30.9764 12.1776 31.024 12.0353 31.0348 11.8879C31.0456 11.7405 31.0191 11.5928 30.958 11.4583L30.1533 11.8236ZM22.5297 4.20004L22.895 3.3971C22.7606 3.33598 22.6131 3.30956 22.4658 3.32025C22.3186 3.33095 22.1764 3.37842 22.0522 3.45831C21.9281 3.53821 21.826 3.64797 21.7552 3.77756C21.6845 3.90715 21.6474 4.05241 21.6474 4.20004H22.5297ZM24.8239 31.2353H14.9415V33H24.8239V31.2353ZM14.9415 4.76475H20.1915V3.00004H14.9415V4.76475ZM29.5886 14.1618V26.4706H31.3533V14.1618H29.5886ZM23.5603 6.16063L28.1927 10.793L29.4403 9.54533L24.808 4.91298L23.5603 6.16063ZM10.1768 14.4706V9.52945H8.41211V14.4706H10.1768ZM10.1768 26.4706V21.5294H8.41211V26.4706H10.1768ZM28.1927 10.793C28.8315 11.4336 29.0468 11.6559 29.1986 11.903L30.7038 10.9818C30.418 10.5159 30.0209 10.1259 29.4403 9.54533L28.1927 10.793ZM24.8062 4.91298C24.2274 4.33063 23.8374 3.93534 23.3715 3.64946L22.4503 5.15475C22.6974 5.30651 22.9197 5.52004 23.5603 6.16063L24.8062 4.91298ZM20.1915 4.76475C21.1921 4.76475 21.8503 4.78592 22.4521 5.15475L23.375 3.64946C22.2827 2.9824 21.118 3.00004 20.1915 3.00004V4.76475ZM31.3533 14.1618C31.3533 13.2336 31.3709 12.0724 30.7038 10.9818L29.1986 11.903C29.5691 12.5047 29.5886 13.1612 29.5886 14.1618H31.3533ZM30.1533 10.9412H24.2944V12.7059H30.1533V10.9412ZM23.4121 10.0589V4.20004H21.6474V10.0589H23.4121ZM24.2944 10.9412C24.0604 10.9412 23.836 10.8482 23.6705 10.6828C23.5051 10.5173 23.4121 10.2929 23.4121 10.0589H21.6474C21.6474 10.7609 21.9263 11.4342 22.4227 11.9306C22.9191 12.427 23.5924 12.7059 24.2944 12.7059V10.9412ZM22.1644 5.00298C22.6427 5.22004 23.0097 5.60828 23.5603 6.16063L24.808 4.91298C24.3491 4.45416 23.7315 3.78004 22.895 3.3971L22.1644 5.00298ZM28.1927 10.793C28.745 11.3453 29.1333 11.7106 29.3503 12.1889L30.958 11.4583C30.5768 10.62 29.8974 10.0024 29.4403 9.54533L28.1927 10.793ZM14.9415 31.2353C12.9297 31.2353 11.8268 30.9071 11.1898 30.2947C10.5615 29.6876 10.1768 28.5935 10.1768 26.4706H8.41211C8.41211 28.7082 8.79681 30.4377 9.96505 31.5653C11.1262 32.6841 12.8468 33 14.9415 33V31.2353ZM29.5886 26.4706C29.5886 28.4824 29.2603 29.5853 28.648 30.2224C28.0409 30.8506 26.9468 31.2353 24.8239 31.2353V33C27.0615 33 28.7909 32.6153 29.9186 31.4471C31.0374 30.2859 31.3533 28.5653 31.3533 26.4706H29.5886ZM10.1768 9.52945C10.1768 7.51768 10.505 6.41475 11.1174 5.77769C11.7245 5.14945 12.8186 4.76475 14.9415 4.76475V3.00004C12.7039 3.00004 10.9745 3.38475 9.84681 4.55298C8.72976 5.71416 8.41211 7.43474 8.41211 9.52945H10.1768Z" fill="black"/>
</svg>
