<svg width="383" height="100" viewBox="0 0 383 100" fill="none" xmlns="http://www.w3.org/2000/svg">
<path fill-rule="evenodd" clip-rule="evenodd" d="M333 94.6197C308.387 94.6197 288.38 74.6135 288.38 50C288.38 25.3865 308.387 5.38034 333 5.38034C357.614 5.38034 377.62 25.3865 377.62 50C377.62 74.6135 357.614 94.6197 333 94.6197ZM333 11.6883C311.881 11.6883 294.688 28.8806 294.688 50C294.688 71.1194 311.881 88.3117 333 88.3117C354.119 88.3117 371.312 71.1194 371.312 50C371.312 28.8806 354.119 11.6883 333 11.6883Z" fill="url(#paint0_linear_33_136)"/>
<path fill-rule="evenodd" clip-rule="evenodd" d="M350.409 71.0884C344.163 80.0247 335.567 80.5195 328.393 77.4273C326.939 77.0872 325.362 76.1286 323.693 74.7062C321.126 72.851 318.931 70.5937 317.416 68.2437C317.374 68.1818 317.333 68.1303 317.292 68.0891C310.52 60.2659 312.87 51.7625 312.87 51.7625C312.87 51.7625 313.179 53.2777 314.973 55.2257C311.077 45.0835 317.477 38.3735 317.477 38.3735C317.477 38.3735 317.199 40.7236 319.24 43.9394C319.951 42.919 320.941 41.744 322.456 39.5176C326.383 33.7662 323.043 26.4069 323.043 26.4069C326.012 27.8293 329.475 30.1175 328.918 34.4465C328.053 41.3729 328.671 41.8986 328.671 41.8986C329.073 36.0853 329.63 34.7866 333.742 30.2721C338.69 24.8918 337.144 19.7588 337.144 19.7588C343.73 29.0353 339.092 33.8899 337.298 43.692C335.505 53.4941 343.204 56.5553 343.204 56.5553C343.204 56.5553 345.771 55.504 341.998 49.9072C338.257 44.3414 345.152 38.0952 345.152 38.0952C342.586 41.9913 341.473 47.3098 349.698 54.3908C357.892 61.4719 350.409 71.0884 350.409 71.0884ZM341.596 64.2857C337.422 59.06 339.153 55.5968 339.153 55.5968C339.153 55.5968 337.174 57.2665 335.907 60.2041C326.785 52.9685 328.207 46.7223 328.207 46.7223C328.207 46.7223 323.26 53.0303 324.62 61.812C320.972 59.1527 320.601 56.5863 320.601 56.5863C320.601 56.5863 318.281 63.4199 323.353 70.099C323.827 70.7174 324.301 71.3255 324.775 71.9233C322.487 71.3977 321.683 70.3463 321.683 70.3463C321.683 70.3463 322.332 73.9951 326.507 76.0359C328.393 76.9635 330.063 77.7056 331.392 77.953C338.597 79.0353 341.813 74.8918 341.875 74.8609C341.875 74.8609 345.771 69.5114 341.596 64.2857Z" fill="url(#paint1_linear_33_136)"/>
<path d="M18.275 51.088C17.699 51.088 17.207 50.884 16.799 50.476C16.391 50.068 16.187 49.576 16.187 49C16.187 48.424 16.391 47.932 16.799 47.524C17.207 47.116 17.699 46.912 18.275 46.912C18.851 46.912 19.343 47.116 19.751 47.524C20.159 47.932 20.363 48.424 20.363 49C20.363 49.576 20.159 50.068 19.751 50.476C19.343 50.884 18.851 51.088 18.275 51.088ZM12.047 51.088C11.471 51.088 10.979 50.884 10.571 50.476C10.163 50.068 9.95898 49.576 9.95898 49C9.95898 48.424 10.163 47.932 10.571 47.524C10.979 47.116 11.471 46.912 12.047 46.912C12.623 46.912 13.115 47.116 13.523 47.524C13.931 47.932 14.135 48.424 14.135 49C14.135 49.576 13.931 50.068 13.523 50.476C13.115 50.884 12.623 51.088 12.047 51.088ZM1.33164 63L4.35564 57.96H25.0916V51.876L30.1316 50.76V62.172C30.1316 62.46 30.0116 62.664 29.7716 62.784C29.5316 62.904 29.2916 62.976 29.0516 63C28.8116 63 28.6916 63 28.6916 63H1.33164ZM33.3576 63C33.3576 63 33.2376 63 32.9976 63C32.7576 62.976 32.5176 62.904 32.2776 62.784C32.0376 62.664 31.9176 62.46 31.9176 62.172V35.316L36.9576 34.2V57.96H39.8376V63H33.3576ZM50.4781 43.088C49.9021 43.088 49.4101 42.884 49.0021 42.476C48.5941 42.068 48.3901 41.576 48.3901 41C48.3901 40.424 48.5941 39.932 49.0021 39.524C49.4101 39.116 49.9021 38.912 50.4781 38.912C51.0541 38.912 51.5461 39.116 51.9541 39.524C52.3621 39.932 52.5661 40.424 52.5661 41C52.5661 41.576 52.3621 42.068 51.9541 42.476C51.5461 42.884 51.0541 43.088 50.4781 43.088ZM44.2501 43.088C43.6741 43.088 43.1821 42.884 42.7741 42.476C42.3661 42.068 42.1621 41.576 42.1621 41C42.1621 40.424 42.3661 39.932 42.7741 39.524C43.1821 39.116 43.6741 38.912 44.2501 38.912C44.8261 38.912 45.3181 39.116 45.7261 39.524C46.1341 39.932 46.3381 40.424 46.3381 41C46.3381 41.576 46.1341 42.068 45.7261 42.476C45.3181 42.884 44.8261 43.088 44.2501 43.088ZM38.3835 63V57.96H48.4635V56.772C48.1275 56.844 47.7795 56.88 47.4195 56.88C46.3155 56.88 45.2955 56.604 44.3595 56.052C43.4235 55.5 42.6675 54.756 42.0915 53.82C41.5395 52.884 41.2635 51.864 41.2635 50.76C41.2635 49.632 41.5395 48.612 42.0915 47.7C42.6675 46.764 43.4235 46.02 44.3595 45.468C45.2955 44.916 46.3155 44.64 47.4195 44.64C48.5475 44.64 49.5675 44.916 50.4795 45.468C51.3915 46.02 52.1235 46.764 52.6755 47.7C53.2275 48.612 53.5035 49.632 53.5035 50.76V62.172C53.5035 62.46 53.3835 62.664 53.1435 62.784C52.9035 62.904 52.6635 62.976 52.4235 63C52.1835 63 52.0635 63 52.0635 63H38.3835ZM47.4195 51.84C47.7315 51.84 47.9835 51.744 48.1755 51.552C48.3675 51.336 48.4635 51.072 48.4635 50.76C48.4635 50.448 48.3675 50.196 48.1755 50.004C47.9835 49.788 47.7315 49.68 47.4195 49.68C47.1075 49.68 46.8435 49.788 46.6275 50.004C46.4115 50.196 46.3035 50.448 46.3035 50.76C46.3035 51.072 46.4115 51.336 46.6275 51.552C46.8435 51.744 47.1075 51.84 47.4195 51.84ZM56.5565 67.752C57.9245 68.112 59.0045 68.208 59.7965 68.04C60.6125 67.896 61.2125 67.608 61.5965 67.176C61.9805 66.744 62.2205 66.3 62.3165 65.844C62.4365 65.412 62.4965 65.088 62.4965 64.872V62.892C62.1605 62.964 61.8125 63 61.4525 63C60.3485 63 59.3285 62.724 58.3925 62.172C57.4565 61.62 56.7005 60.876 56.1245 59.94C55.5725 59.004 55.2965 57.984 55.2965 56.88C55.2965 55.752 55.5725 54.732 56.1245 53.82C56.7005 52.884 57.4565 52.14 58.3925 51.588C59.3285 51.036 60.3485 50.76 61.4525 50.76C61.7645 50.76 62.2085 50.748 62.7845 50.724C63.3605 50.676 63.9605 50.592 64.5845 50.472C65.2325 50.328 65.8205 50.124 66.3485 49.86C66.9005 49.572 67.2965 49.2 67.5365 48.744V63.792C67.5365 65.208 67.2365 66.36 66.6365 67.248C66.0365 68.16 65.2685 68.82 64.3325 69.228C63.4205 69.66 62.4485 69.876 61.4165 69.876C60.4085 69.876 59.4605 69.684 58.5725 69.3C57.7085 68.94 57.0365 68.424 56.5565 67.752ZM61.4525 57.96C61.7645 57.96 62.0165 57.864 62.2085 57.672C62.4005 57.456 62.4965 57.192 62.4965 56.88C62.4965 56.568 62.4005 56.316 62.2085 56.124C62.0165 55.908 61.7645 55.8 61.4525 55.8C61.1405 55.8 60.8765 55.908 60.6605 56.124C60.4445 56.316 60.3365 56.568 60.3365 56.88C60.3365 57.192 60.4445 57.456 60.6605 57.672C60.8765 57.864 61.1405 57.96 61.4525 57.96ZM65.3638 68.4C66.7798 68.76 67.8598 68.82 68.6038 68.58C69.3718 68.364 69.8878 67.932 70.1518 67.284C70.4398 66.66 70.5838 65.952 70.5838 65.16V51.876L75.6238 50.76V57.96H79.9438V63H75.6238V65.16C75.6238 66.432 75.3478 67.464 74.7958 68.256C74.2678 69.072 73.5718 69.66 72.7078 70.02C71.8438 70.404 70.9318 70.584 69.9718 70.56C69.0358 70.536 68.1598 70.332 67.3438 69.948C66.5038 69.588 65.8438 69.072 65.3638 68.4ZM78.4968 63V57.96H84.3648L82.7808 55.116H80.8368L78.3168 50.076H85.3008L89.6928 57.96H94.9848V63H92.5368L94.7328 66.96L91.2768 70.236L87.2088 63H78.4968ZM93.5437 63V57.96H97.0357C96.9637 57.6 96.9277 57.24 96.9277 56.88C96.9277 55.536 97.3357 54.324 98.1517 53.244C98.9917 52.14 100.048 51.396 101.32 51.012C101.728 50.892 102.052 50.688 102.292 50.4C102.532 50.112 102.784 49.524 103.048 48.636C103.36 49.548 103.636 50.136 103.876 50.4C104.14 50.664 104.488 50.88 104.92 51.048C106.168 51.432 107.188 52.164 107.98 53.244C108.772 54.324 109.168 55.536 109.168 56.88C109.168 57.24 109.132 57.6 109.06 57.96H112.624V63H93.5437ZM103.084 57.96C103.396 57.96 103.648 57.864 103.84 57.672C104.032 57.456 104.128 57.192 104.128 56.88C104.128 56.568 104.032 56.316 103.84 56.124C103.648 55.908 103.396 55.8 103.084 55.8C102.772 55.8 102.508 55.908 102.292 56.124C102.076 56.316 101.968 56.568 101.968 56.88C101.968 57.192 102.076 57.456 102.292 57.672C102.508 57.864 102.772 57.96 103.084 57.96ZM111.192 63V57.96H114.072V35.316L119.112 34.2V62.172C119.112 62.46 118.992 62.664 118.752 62.784C118.512 62.904 118.272 62.976 118.032 63C117.792 63 117.672 63 117.672 63H111.192ZM129.358 60.912C129.214 61.44 128.83 61.908 128.206 62.316C127.606 62.7 126.886 62.964 126.046 63.108C125.23 63.252 124.426 63.228 123.634 63.036C122.866 62.868 122.218 62.496 121.69 61.92C121.162 61.32 120.898 60.48 120.898 59.4V35.316L125.938 34.2V59.4C125.938 60 126.07 60.444 126.334 60.732C126.598 60.996 126.922 61.164 127.306 61.236C127.69 61.284 128.074 61.272 128.458 61.2C128.842 61.104 129.142 61.008 129.358 60.912ZM138.777 70.2C137.745 69.888 136.845 69.252 136.077 68.292C135.309 67.332 134.925 66.012 134.925 64.332C134.925 63.66 135.069 62.94 135.357 62.172C135.645 61.38 136.065 60.66 136.617 60.012C137.193 59.34 137.913 58.824 138.777 58.464L134.745 54.108L137.805 49.896L141.405 53.82V49.716L146.445 48.6V57.96H150.225V63H141.837C141.549 63 141.201 63.084 140.793 63.252C140.385 63.444 140.025 63.72 139.713 64.08C139.425 64.464 139.281 64.968 139.281 65.592C139.281 66.36 139.485 66.972 139.893 67.428C140.301 67.908 140.829 68.244 141.477 68.436C142.125 68.652 142.809 68.772 143.529 68.796C144.273 68.82 144.981 68.784 145.653 68.688C146.349 68.592 146.925 68.46 147.381 68.292C146.829 68.94 146.049 69.456 145.041 69.84C144.033 70.224 142.965 70.44 141.837 70.488C140.709 70.56 139.689 70.464 138.777 70.2ZM155.595 70.088C155.019 70.088 154.527 69.884 154.119 69.476C153.711 69.068 153.507 68.576 153.507 68C153.507 67.424 153.711 66.932 154.119 66.524C154.527 66.116 155.019 65.912 155.595 65.912C156.171 65.912 156.663 66.116 157.071 66.524C157.479 66.932 157.683 67.424 157.683 68C157.683 68.576 157.479 69.068 157.071 69.476C156.663 69.884 156.171 70.088 155.595 70.088ZM149.367 70.088C148.791 70.088 148.299 69.884 147.891 69.476C147.483 69.068 147.279 68.576 147.279 68C147.279 67.424 147.483 66.932 147.891 66.524C148.299 66.116 148.791 65.912 149.367 65.912C149.943 65.912 150.435 66.116 150.843 66.524C151.251 66.932 151.455 67.424 151.455 68C151.455 68.576 151.251 69.068 150.843 69.476C150.435 69.884 149.943 70.088 149.367 70.088ZM148.774 63V57.96H151.654V51.876L156.694 50.76V62.172C156.694 62.46 156.574 62.664 156.334 62.784C156.094 62.904 155.854 62.976 155.614 63C155.374 63 155.254 63 155.254 63H148.774ZM165.856 47.088C165.28 47.088 164.788 46.884 164.38 46.476C163.972 46.068 163.768 45.576 163.768 45C163.768 44.424 163.972 43.932 164.38 43.524C164.788 43.116 165.28 42.912 165.856 42.912C166.432 42.912 166.924 43.116 167.332 43.524C167.74 43.932 167.944 44.424 167.944 45C167.944 45.576 167.74 46.068 167.332 46.476C166.924 46.884 166.432 47.088 165.856 47.088ZM158.106 68.4C159.522 68.76 160.602 68.82 161.346 68.58C162.114 68.364 162.63 67.932 162.894 67.284C163.182 66.66 163.326 65.952 163.326 65.16V51.876L168.366 50.76V65.16C168.366 66.432 168.09 67.464 167.538 68.256C167.01 69.072 166.314 69.66 165.45 70.02C164.586 70.404 163.674 70.584 162.714 70.56C161.778 70.536 160.902 70.332 160.086 69.948C159.246 69.588 158.586 69.072 158.106 68.4ZM176.2 63C175.096 62.976 174.088 62.688 173.176 62.136C172.264 61.584 171.532 60.852 170.98 59.94C170.428 59.004 170.152 57.984 170.152 56.88C170.152 55.752 170.428 54.732 170.98 53.82C171.556 52.884 172.312 52.14 173.248 51.588C174.184 51.036 175.204 50.76 176.308 50.76C176.62 50.76 177.064 50.748 177.64 50.724C178.216 50.676 178.816 50.592 179.44 50.472C180.088 50.328 180.676 50.124 181.204 49.86C181.756 49.572 182.152 49.2 182.392 48.744V57.96H184.372V63H182.392V63.792C182.392 65.208 182.092 66.36 181.492 67.248C180.892 68.16 180.124 68.82 179.188 69.228C178.276 69.66 177.304 69.876 176.272 69.876C175.264 69.876 174.316 69.684 173.428 69.3C172.564 68.94 171.892 68.424 171.412 67.752C172.78 68.112 173.86 68.208 174.652 68.04C175.468 67.896 176.068 67.608 176.452 67.176C176.836 66.744 177.076 66.3 177.172 65.844C177.292 65.412 177.352 65.088 177.352 64.872V63H176.2ZM176.308 57.96C176.62 57.96 176.872 57.864 177.064 57.672C177.256 57.456 177.352 57.192 177.352 56.88C177.352 56.568 177.256 56.316 177.064 56.124C176.872 55.908 176.62 55.8 176.308 55.8C175.996 55.8 175.732 55.908 175.516 56.124C175.3 56.316 175.192 56.568 175.192 56.88C175.192 57.192 175.3 57.456 175.516 57.672C175.732 57.864 175.996 57.96 176.308 57.96ZM189.767 46.088C189.191 46.088 188.699 45.884 188.291 45.476C187.883 45.068 187.679 44.576 187.679 44C187.679 43.424 187.883 42.932 188.291 42.524C188.699 42.116 189.191 41.912 189.767 41.912C190.343 41.912 190.835 42.116 191.243 42.524C191.651 42.932 191.855 43.424 191.855 44C191.855 44.576 191.651 45.068 191.243 45.476C190.835 45.884 190.343 46.088 189.767 46.088ZM183.539 46.088C182.963 46.088 182.471 45.884 182.063 45.476C181.655 45.068 181.451 44.576 181.451 44C181.451 43.424 181.655 42.932 182.063 42.524C182.471 42.116 182.963 41.912 183.539 41.912C184.115 41.912 184.607 42.116 185.015 42.524C185.423 42.932 185.627 43.424 185.627 44C185.627 44.576 185.423 45.068 185.015 45.476C184.607 45.884 184.115 46.088 183.539 46.088ZM182.946 63V57.96H185.826V51.876L190.866 50.76V62.172C190.866 62.46 190.746 62.664 190.506 62.784C190.266 62.904 190.026 62.976 189.786 63C189.546 63 189.426 63 189.426 63H182.946ZM200.168 41.968C199.592 41.968 199.1 41.764 198.692 41.356C198.284 40.948 198.08 40.456 198.08 39.88C198.08 39.304 198.284 38.812 198.692 38.404C199.1 37.996 199.592 37.792 200.168 37.792C200.744 37.792 201.236 37.996 201.644 38.404C202.052 38.812 202.256 39.304 202.256 39.88C202.256 40.456 202.052 40.948 201.644 41.356C201.236 41.764 200.744 41.968 200.168 41.968ZM200.168 48.088C199.592 48.088 199.1 47.884 198.692 47.476C198.284 47.068 198.08 46.576 198.08 46C198.08 45.424 198.284 44.932 198.692 44.524C199.1 44.116 199.592 43.912 200.168 43.912C200.744 43.912 201.236 44.116 201.644 44.524C202.052 44.932 202.256 45.424 202.256 46C202.256 46.576 202.052 47.068 201.644 47.476C201.236 47.884 200.744 48.088 200.168 48.088ZM203.484 63C202.38 63 201.36 62.724 200.424 62.172C199.488 61.62 198.732 60.876 198.156 59.94C197.604 59.004 197.328 57.984 197.328 56.88C197.328 55.752 197.604 54.732 198.156 53.82C198.732 52.884 199.488 52.14 200.424 51.588C201.36 51.036 202.38 50.76 203.484 50.76C203.796 50.76 204.24 50.748 204.816 50.724C205.392 50.676 205.992 50.592 206.616 50.472C207.264 50.328 207.852 50.124 208.38 49.86C208.932 49.572 209.328 49.2 209.568 48.744V56.88C209.568 58.008 209.292 59.04 208.74 59.976C208.188 60.888 207.456 61.62 206.544 62.172C205.632 62.724 204.612 63 203.484 63ZM204.528 45.252V35.316L209.568 34.2V43.2L204.528 45.252ZM204.528 49.86V46.332L209.568 44.28V47.664C209.376 48.048 209.004 48.408 208.452 48.744C207.9 49.08 207.276 49.356 206.58 49.572C205.884 49.764 205.2 49.86 204.528 49.86ZM203.484 57.96C203.796 57.96 204.048 57.864 204.24 57.672C204.432 57.456 204.528 57.192 204.528 56.88C204.528 56.568 204.432 56.316 204.24 56.124C204.048 55.908 203.796 55.8 203.484 55.8C203.172 55.8 202.908 55.908 202.692 56.124C202.476 56.316 202.368 56.568 202.368 56.88C202.368 57.192 202.476 57.456 202.692 57.672C202.908 57.864 203.172 57.96 203.484 57.96ZM207.395 68.4C208.811 68.76 209.891 68.82 210.635 68.58C211.403 68.364 211.919 67.932 212.183 67.284C212.471 66.66 212.615 65.952 212.615 65.16V51.876L217.655 50.76V65.16C217.655 66.432 217.379 67.464 216.827 68.256C216.299 69.072 215.603 69.66 214.739 70.02C213.875 70.404 212.963 70.584 212.003 70.56C211.067 70.536 210.191 70.332 209.375 69.948C208.535 69.588 207.875 69.072 207.395 68.4ZM227.901 60.912C227.757 61.44 227.373 61.908 226.749 62.316C226.149 62.7 225.429 62.964 224.589 63.108C223.773 63.252 222.969 63.228 222.177 63.036C221.409 62.868 220.761 62.496 220.233 61.92C219.705 61.32 219.441 60.48 219.441 59.4V35.316L224.481 34.2V59.4C224.481 60 224.613 60.444 224.877 60.732C225.141 60.996 225.465 61.164 225.849 61.236C226.233 61.284 226.617 61.272 227.001 61.2C227.385 61.104 227.685 61.008 227.901 60.912ZM228.793 63L231.817 57.96H253.273C253.297 57.312 253.093 56.796 252.661 56.412C252.253 56.004 251.377 55.8 250.033 55.8H232.753L238.369 46.44L238.729 46.692L236.857 50.76H250.033C251.713 50.76 253.081 50.988 254.137 51.444C255.193 51.9 256.009 52.512 256.585 53.28C257.161 54.024 257.569 54.864 257.809 55.8C258.073 56.712 258.217 57.66 258.241 58.644C258.289 59.604 258.313 60.516 258.313 61.38C258.313 61.524 258.313 61.668 258.313 61.812C258.313 61.932 258.313 62.052 258.313 62.172C258.313 62.46 258.193 62.664 257.953 62.784C257.713 62.904 257.473 62.976 257.233 63C256.993 63 256.873 63 256.873 63H228.793ZM258.303 70.048L259.383 68.248H260.931C260.931 67.624 261.003 67.036 261.147 66.484C261.339 65.764 261.663 65.164 262.119 64.684C262.575 64.228 263.271 64 264.207 64C264.543 64 264.939 64.096 265.395 64.288C265.875 64.504 266.235 64.888 266.475 65.44C266.331 65.368 266.019 65.272 265.539 65.152C265.059 65.032 264.651 65.02 264.315 65.116C263.931 65.212 263.655 65.38 263.487 65.62C263.343 65.86 263.247 66.088 263.199 66.304C263.175 66.544 263.163 66.712 263.163 66.808C263.163 66.832 263.163 66.844 263.163 66.844C263.163 67.516 263.391 67.912 263.847 68.032C264.303 68.176 264.747 68.248 265.179 68.248H268.023L266.943 70.048H258.303ZM268.577 60.912C268.433 61.44 268.049 61.908 267.425 62.316C266.825 62.7 266.105 62.964 265.265 63.108C264.449 63.252 263.645 63.228 262.853 63.036C262.085 62.868 261.437 62.496 260.909 61.92C260.381 61.32 260.117 60.48 260.117 59.4V35.316L265.157 34.2V59.4C265.157 60 265.289 60.444 265.553 60.732C265.817 60.996 266.141 61.164 266.525 61.236C266.909 61.284 267.293 61.272 267.677 61.2C268.061 61.104 268.361 61.008 268.577 60.912Z" fill="url(#paint2_linear_33_136)"/>
<defs>
<linearGradient id="paint0_linear_33_136" x1="462.148" y1="5.35123" x2="460.581" y2="97.4961" gradientUnits="userSpaceOnUse">
<stop stop-color="#B31329"/>
<stop offset="0.33" stop-color="#FA273B"/>
<stop offset="0.97" stop-color="#FFB700"/>
</linearGradient>
<linearGradient id="paint1_linear_33_136" x1="392.424" y1="19.7394" x2="390.916" y2="81.0427" gradientUnits="userSpaceOnUse">
<stop stop-color="#B31329"/>
<stop offset="0.33" stop-color="#FA273B"/>
<stop offset="0.97" stop-color="#FFB700"/>
</linearGradient>
<linearGradient id="paint2_linear_33_136" x1="523.798" y1="22.9824" x2="523.607" y2="78.7561" gradientUnits="userSpaceOnUse">
<stop stop-color="#B31329"/>
<stop offset="0.33" stop-color="#FA273B"/>
<stop offset="0.97" stop-color="#FFB700"/>
</linearGradient>
</defs>
</svg>
