<svg width="30" height="31" viewBox="0 0 30 31" fill="none" xmlns="http://www.w3.org/2000/svg">
<g clip-path="url(#clip0_72_2)">
<path d="M6.5625 5.1875H16.875C17.4375 5.1875 17.8125 5.5625 17.8125 6.125V10.8125M6.5625 25.8125H16.875C17.4375 25.8125 17.8125 25.4375 17.8125 24.875V20.1875M28.125 15.5H13.125M23.4375 9.875L28.3125 14.75C28.6875 15.125 28.6875 15.6875 28.3125 16.0625L23.4375 21.125M1.3125 5L5.0625 1.8125C5.625 1.25 6.5625 1.8125 6.5625 2.5625V28.625C6.5625 29.375 5.625 29.9375 5.0625 29.375L1.3125 26.1875C1.125 26 0.9375 25.8125 0.9375 25.4375V5.5625C0.9375 5.375 1.125 5 1.3125 5Z" stroke="white" stroke-width="2" stroke-linecap="round" stroke-linejoin="round"/>
</g>
<defs>
<clipPath id="clip0_72_2">
<rect width="30" height="30" fill="white" transform="translate(0 0.5)"/>
</clipPath>
</defs>
</svg>
