<svg width="35" height="35" stroke="black" viewBox="0 0 35 35" fill="none" xmlns="http://www.w3.org/2000/svg">
<path d="M10.2083 13.8542C9.92106 13.8542 9.6366 13.9107 9.3712 14.0207C9.1058 14.1306 8.86465 14.2917 8.66153 14.4949C8.4584 14.698 8.29727 14.9391 8.18734 15.2045C8.0774 15.4699 8.02082 15.7544 8.02082 16.0417C8.02082 16.3289 8.0774 16.6134 8.18734 16.8788C8.29727 17.1442 8.4584 17.3853 8.66153 17.5885C8.86465 17.7916 9.1058 17.9527 9.3712 18.0626C9.6366 18.1726 9.92106 18.2292 10.2083 18.2292C10.7885 18.2292 11.3449 17.9987 11.7551 17.5885C12.1654 17.1782 12.3958 16.6218 12.3958 16.0417C12.3958 15.4615 12.1654 14.9051 11.7551 14.4949C11.3449 14.0846 10.7885 13.8542 10.2083 13.8542ZM10.2083 16.7708C10.0149 16.7708 9.82947 16.694 9.69272 16.5573C9.55598 16.4205 9.47916 16.235 9.47916 16.0417C9.47916 15.8483 9.55598 15.6628 9.69272 15.5261C9.82947 15.3893 10.0149 15.3125 10.2083 15.3125C10.4017 15.3125 10.5872 15.3893 10.7239 15.5261C10.8607 15.6628 10.9375 15.8483 10.9375 16.0417C10.9375 16.235 10.8607 16.4205 10.7239 16.5573C10.5872 16.694 10.4017 16.7708 10.2083 16.7708ZM28.4375 8.74999H26.25V3.64582C26.25 3.45244 26.1732 3.26697 26.0364 3.13022C25.8997 2.99348 25.7142 2.91666 25.5208 2.91666H9.47916C9.28577 2.91666 9.1003 2.99348 8.96356 3.13022C8.82681 3.26697 8.74999 3.45244 8.74999 3.64582V8.74999H6.56249C5.59555 8.74999 4.66822 9.1341 3.9845 9.81783C3.30077 10.5016 2.91666 11.4289 2.91666 12.3958V21.875C2.91781 23.035 3.37912 24.1471 4.19934 24.9673C5.01956 25.7875 6.13169 26.2488 7.29166 26.25H8.74999V31.3542C8.74999 31.5475 8.82681 31.733 8.96356 31.8698C9.1003 32.0065 9.28577 32.0833 9.47916 32.0833H25.5208C25.7142 32.0833 25.8997 32.0065 26.0364 31.8698C26.1732 31.733 26.25 31.5475 26.25 31.3542V26.25H27.7083C28.8683 26.2488 29.9804 25.7875 30.8006 24.9673C31.6209 24.1471 32.0822 23.035 32.0833 21.875V12.3958C32.0833 11.4289 31.6992 10.5016 31.0155 9.81783C30.3318 9.1341 29.4044 8.74999 28.4375 8.74999ZM10.2083 4.37499H24.7917V8.74999H10.2083V4.37499ZM24.7917 30.625H10.2083V21.875H24.7917V30.625ZM30.625 21.875C30.6238 22.6482 30.3162 23.3894 29.7694 23.9361C29.2227 24.4828 28.4815 24.7905 27.7083 24.7917H26.25V21.1458C26.25 20.9524 26.1732 20.767 26.0364 20.6302C25.8997 20.4935 25.7142 20.4167 25.5208 20.4167H9.47916C9.28577 20.4167 9.1003 20.4935 8.96356 20.6302C8.82681 20.767 8.74999 20.9524 8.74999 21.1458V24.7917H7.29166C6.51846 24.7905 5.77727 24.4828 5.23054 23.9361C4.68381 23.3894 4.37615 22.6482 4.37499 21.875V12.3958C4.37499 11.8157 4.60546 11.2593 5.01569 10.849C5.42593 10.4388 5.98233 10.2083 6.56249 10.2083H28.4375C29.0176 10.2083 29.574 10.4388 29.9843 10.849C30.3945 11.2593 30.625 11.8157 30.625 12.3958V21.875Z" fill="black" stroke-width="0.5"/>
</svg>
