<svg width="35" height="35" viewBox="0 0 35 35" fill="none" xmlns="http://www.w3.org/2000/svg">
<path fill-rule="evenodd" clip-rule="evenodd" d="M12.7606 2.91667H14.2189C18.3431 2.91667 20.4066 2.91667 21.687 4.19855C22.9689 5.47896 22.9689 7.5425 22.9689 11.6667V23.6979H25.26C27.0158 23.6979 28.4377 25.1198 28.4377 26.8756V26.9792C28.4377 27.2693 28.5529 27.5475 28.758 27.7526C28.9631 27.9577 29.2413 28.0729 29.5314 28.0729C29.8215 28.0729 30.0997 27.9577 30.3048 27.7526C30.5099 27.5475 30.6252 27.2693 30.6252 26.9792V20.0521L28.8402 19.4571C28.4045 19.312 28.0256 19.0335 27.757 18.661C27.4885 18.2886 27.344 17.8411 27.3439 17.3819V13.8542C27.3439 13.274 27.5744 12.7176 27.9846 12.3074C28.3949 11.8971 28.9513 11.6667 29.5314 11.6667H30.6252V11.1154C30.6252 10.8456 30.6252 10.7538 30.6208 10.6692C30.5722 9.80156 30.1815 8.98864 29.5343 8.40875C29.4215 8.31152 29.3063 8.21719 29.1887 8.12584L27.3906 6.68792C27.2764 6.59896 27.181 6.48822 27.11 6.36213C27.0389 6.23604 26.9936 6.0971 26.9767 5.95337C26.9597 5.80963 26.9714 5.66396 27.0112 5.5248C27.0509 5.38563 27.1179 5.25574 27.2082 5.14265C27.2986 5.02956 27.4104 4.93552 27.5374 4.86598C27.6643 4.79644 27.8038 4.75278 27.9477 4.73753C28.0916 4.72229 28.2371 4.73576 28.3758 4.77717C28.5145 4.81857 28.6436 4.88709 28.7556 4.97875L30.5785 6.43709C30.7564 6.58 30.8789 6.67771 30.9941 6.78126C32.0719 7.74743 32.7227 9.10149 32.8039 10.5467C32.8127 10.6998 32.8127 10.8573 32.8127 11.0863V26.9792C32.8127 27.8494 32.467 28.684 31.8516 29.2994C31.2363 29.9147 30.4017 30.2604 29.5314 30.2604C28.6612 30.2604 27.8266 29.9147 27.2112 29.2994C26.5959 28.684 26.2502 27.8494 26.2502 26.9792V26.8756C26.2498 26.6131 26.1453 26.3615 25.9597 26.1759C25.7741 25.9903 25.5225 25.8858 25.26 25.8854H22.9689V30.9896H24.6066C24.8967 30.9896 25.1749 31.1048 25.38 31.3099C25.5851 31.5151 25.7004 31.7933 25.7004 32.0833C25.7004 32.3734 25.5851 32.6516 25.38 32.8567C25.1749 33.0619 24.8967 33.1771 24.6066 33.1771H2.55225C2.26217 33.1771 1.98397 33.0619 1.77885 32.8567C1.57373 32.6516 1.4585 32.3734 1.4585 32.0833C1.4585 31.7933 1.57373 31.5151 1.77885 31.3099C1.98397 31.1048 2.26217 30.9896 2.55225 30.9896H4.01058V11.6667C4.01058 7.5425 4.01058 5.47896 5.29245 4.19855C6.57287 2.91667 8.63641 2.91667 12.7606 2.91667ZM10.2085 23.6979C9.91842 23.6979 9.64021 23.8132 9.4351 24.0183C9.22998 24.2234 9.11475 24.5016 9.11475 24.7917C9.11475 25.0818 9.22998 25.36 9.4351 25.5651C9.64021 25.7702 9.91842 25.8854 10.2085 25.8854H17.5002C17.7902 25.8854 18.0684 25.7702 18.2736 25.5651C18.4787 25.36 18.5939 25.0818 18.5939 24.7917C18.5939 24.5016 18.4787 24.2234 18.2736 24.0183C18.0684 23.8132 17.7902 23.6979 17.5002 23.6979H10.2085ZM16.0418 8.75H11.6668C10.2916 8.75 9.60475 8.75001 9.17745 9.1773C8.75016 9.60459 8.75016 10.2915 8.75016 11.6667C8.75016 13.0419 8.75016 13.7288 9.17745 14.156C9.60475 14.5833 10.2916 14.5833 11.6668 14.5833H16.0418C17.417 14.5833 18.1039 14.5833 18.5312 14.156C18.9585 13.7288 18.9585 13.0419 18.9585 11.6667C18.9585 10.2915 18.9585 9.60459 18.5312 9.1773C18.1039 8.75001 17.417 8.75 16.0418 8.75Z" />
</svg>
