<svg width="35" height="35" viewBox="0 0 35 35"  xmlns="http://www.w3.org/2000/svg">
<path d="M29.7098 24.2235C30.2438 23.9796 30.6965 23.5873 31.0139 23.0934C31.3313 22.5994 31.5001 22.0246 31.5 21.4375V19.3147C31.5001 18.3506 31.1818 17.4134 30.5944 16.6488C30.0071 15.8843 29.1836 15.3351 28.252 15.0868L24.5893 14.1102L21.8908 9.2505C21.5118 8.56828 20.9572 7.99984 20.2846 7.60413C19.6119 7.20841 18.8457 6.99983 18.0653 7H12.1485C11.2301 6.99996 10.3349 7.28897 9.58986 7.82607C8.84483 8.36317 8.28773 9.12112 7.9975 9.9925L6.55725 14.3115C5.67037 14.5916 4.89584 15.1471 4.34608 15.8973C3.79633 16.6475 3.49996 17.5534 3.5 18.4835V21.4375C3.5 22.6748 4.235 23.7405 5.29025 24.2235C5.43039 25.2474 5.92845 26.1886 6.69617 26.8804C7.4639 27.5721 8.45172 27.9698 9.48461 28.003C10.5175 28.0361 11.5288 27.7025 12.3392 27.0613C13.1497 26.4202 13.707 25.5128 13.9125 24.5H21.0875C21.293 25.5128 21.8503 26.4202 22.6608 27.0613C23.4712 27.7025 24.4825 28.0361 25.5154 28.003C26.5483 27.9698 27.5361 27.5721 28.3038 26.8804C29.0716 26.1886 29.5696 25.2474 29.7098 24.2235ZM12.1485 8.75H14V14H8.505L9.6565 10.5455C9.83071 10.0224 10.1652 9.56751 10.6125 9.24523C11.0598 8.92295 11.5972 8.74968 12.1485 8.75ZM20.3595 10.101L22.5278 14H15.75V8.75H18.0653C18.5334 8.75015 18.993 8.8755 19.3964 9.11304C19.7998 9.35059 20.1323 9.69169 20.3595 10.101ZM7 23.625C7 23.2803 7.0679 22.9389 7.19982 22.6205C7.33173 22.302 7.52509 22.0126 7.76884 21.7688C8.0126 21.5251 8.30198 21.3317 8.62046 21.1998C8.93894 21.0679 9.28028 21 9.625 21C9.96972 21 10.3111 21.0679 10.6295 21.1998C10.948 21.3317 11.2374 21.5251 11.4812 21.7688C11.7249 22.0126 11.9183 22.302 12.0502 22.6205C12.1821 22.9389 12.25 23.2803 12.25 23.625C12.25 24.3212 11.9734 24.9889 11.4812 25.4812C10.9889 25.9734 10.3212 26.25 9.625 26.25C8.92881 26.25 8.26113 25.9734 7.76884 25.4812C7.27656 24.9889 7 24.3212 7 23.625ZM22.75 23.625C22.75 22.9288 23.0266 22.2611 23.5188 21.7688C24.0111 21.2766 24.6788 21 25.375 21C26.0712 21 26.7389 21.2766 27.2312 21.7688C27.7234 22.2611 28 22.9288 28 23.625C28 24.3212 27.7234 24.9889 27.2312 25.4812C26.7389 25.9734 26.0712 26.25 25.375 26.25C24.6788 26.25 24.0111 25.9734 23.5188 25.4812C23.0266 24.9889 22.75 24.3212 22.75 23.625Z" />
</svg>
